<svg data-v-423bf9ae="" xmlns="http://www.w3.org/2000/svg" viewBox="0 0 235.35715008809188 223" class="iconAboveSlogan"><!----><!----><!----><g data-v-423bf9ae="" id="89b3a2e2-2a53-4a2c-9db2-9b587a201006" fill="black" transform="matrix(5.952380997433594,0,0,5.952380997433594,-2.976188119667029,84.2499969062351)"><path d="M5.21 13.23L5.21 13.23Q3.09 13.23 1.85 12.30L1.85 12.30L1.85 12.30Q0.60 11.37 0.52 9.44L0.52 9.44L0.52 9.44Q0.50 9.06 0.50 8.20L0.50 8.20L0.50 8.20Q0.50 7.34 0.52 6.94L0.52 6.94L0.52 6.94Q0.60 5.07 1.88 4.11L1.88 4.11L1.88 4.11Q3.15 3.15 5.21 3.15L5.21 3.15L5.21 3.15Q6.47 3.15 7.53 3.53L7.53 3.53L7.53 3.53Q8.58 3.91 9.25 4.71L9.25 4.71L9.25 4.71Q9.91 5.52 9.93 6.73L9.93 6.73L9.93 6.73Q9.93 6.86 9.84 6.95L9.84 6.95L9.84 6.95Q9.74 7.04 9.62 7.04L9.62 7.04L6.76 7.04L6.76 7.04Q6.54 7.04 6.43 6.96L6.43 6.96L6.43 6.96Q6.33 6.87 6.24 6.64L6.24 6.64L6.24 6.64Q6.09 6.22 5.84 6.05L5.84 6.05L5.84 6.05Q5.59 5.88 5.19 5.88L5.19 5.88L5.19 5.88Q4.70 5.88 4.44 6.14L4.44 6.14L4.44 6.14Q4.17 6.40 4.16 7.01L4.16 7.01L4.16 7.01Q4.14 7.39 4.14 8.18L4.14 8.18L4.14 8.18Q4.14 8.96 4.16 9.37L4.16 9.37L4.16 9.37Q4.17 9.98 4.44 10.24L4.44 10.24L4.44 10.24Q4.70 10.50 5.19 10.50L5.19 10.50L5.19 10.50Q5.99 10.50 6.24 9.74L6.24 9.74L6.24 9.74Q6.31 9.51 6.42 9.42L6.42 9.42L6.42 9.42Q6.52 9.34 6.76 9.34L6.76 9.34L9.62 9.34L9.62 9.34Q9.74 9.34 9.84 9.43L9.84 9.43L9.84 9.43Q9.93 9.52 9.93 9.65L9.93 9.65L9.93 9.65Q9.91 10.86 9.25 11.67L9.25 11.67L9.25 11.67Q8.58 12.47 7.53 12.85L7.53 12.85L7.53 12.85Q6.47 13.23 5.21 13.23L5.21 13.23ZM13.54 13.23L13.54 13.23Q12.80 13.23 12.18 12.89L12.18 12.89L12.18 12.89Q11.56 12.54 11.19 11.83L11.19 11.83L11.19 11.83Q10.82 11.12 10.82 10.05L10.82 10.05L10.82 6.19L10.82 6.19Q10.82 6.03 10.93 5.92L10.93 5.92L10.93 5.92Q11.05 5.81 11.20 5.81L11.20 5.81L13.87 5.81L13.87 5.81Q14.03 5.81 14.14 5.92L14.14 5.92L14.14 5.92Q14.25 6.03 14.25 6.19L14.25 6.19L14.25 9.95L14.25 9.95Q14.25 10.33 14.43 10.53L14.43 10.53L14.43 10.53Q14.62 10.72 14.95 10.72L14.95 10.72L14.95 10.72Q15.29 10.72 15.47 10.53L15.47 10.53L15.47 10.53Q15.65 10.33 15.65 9.95L15.65 9.95L15.65 6.19L15.65 6.19Q15.65 6.03 15.76 5.92L15.76 5.92L15.76 5.92Q15.88 5.81 16.03 5.81L16.03 5.81L18.69 5.81L18.69 5.81Q18.84 5.81 18.96 5.92L18.96 5.92L18.96 5.92Q19.07 6.03 19.07 6.19L19.07 6.19L19.07 12.71L19.07 12.71Q19.07 12.87 18.96 12.98L18.96 12.98L18.96 12.98Q18.84 13.09 18.69 13.09L18.69 13.09L16.24 13.09L16.24 13.09Q16.09 13.09 15.97 12.98L15.97 12.98L15.97 12.98Q15.86 12.87 15.86 12.71L15.86 12.71L15.86 12.25L15.86 12.25Q15.53 12.74 14.92 12.98L14.92 12.98L14.92 12.98Q14.32 13.23 13.54 13.23L13.54 13.23ZM24.84 13.09L24.84 13.09Q23.18 13.09 22.26 12.40L22.26 12.40L22.26 12.40Q21.34 11.70 21.34 10.08L21.34 10.08L21.34 8.26L20.23 8.26L20.23 8.26Q20.08 8.26 19.96 8.15L19.96 8.15L19.96 8.15Q19.85 8.04 19.85 7.88L19.85 7.88L19.85 6.19L19.85 6.19Q19.85 6.03 19.96 5.92L19.96 5.92L19.96 5.92Q20.08 5.81 20.23 5.81L20.23 5.81L21.34 5.81L21.34 3.53L21.34 3.53Q21.34 3.37 21.45 3.26L21.45 3.26L21.45 3.26Q21.56 3.15 21.71 3.15L21.71 3.15L24.16 3.15L24.16 3.15Q24.32 3.15 24.43 3.26L24.43 3.26L24.43 3.26Q24.54 3.37 24.54 3.53L24.54 3.53L24.54 5.81L26.31 5.81L26.31 5.81Q26.46 5.81 26.57 5.92L26.57 5.92L26.57 5.92Q26.68 6.03 26.68 6.19L26.68 6.19L26.68 7.88L26.68 7.88Q26.68 8.04 26.57 8.15L26.57 8.15L26.57 8.15Q26.46 8.26 26.31 8.26L26.31 8.26L24.54 8.26L24.54 9.80L24.54 9.80Q24.54 10.50 25.14 10.50L25.14 10.50L26.42 10.50L26.42 10.50Q26.57 10.50 26.68 10.61L26.68 10.61L26.68 10.61Q26.80 10.72 26.80 10.88L26.80 10.88L26.80 12.71L26.80 12.71Q26.80 12.87 26.68 12.98L26.68 12.98L26.68 12.98Q26.57 13.09 26.42 13.09L26.42 13.09L24.84 13.09ZM28.15 13.09L28.15 13.09Q28 13.09 27.89 12.98L27.89 12.98L27.89 12.98Q27.78 12.87 27.78 12.71L27.78 12.71L27.78 3.53L27.78 3.53Q27.78 3.37 27.89 3.26L27.89 3.26L27.89 3.26Q28 3.15 28.15 3.15L28.15 3.15L30.66 3.15L30.66 3.15Q30.81 3.15 30.93 3.26L30.93 3.26L30.93 3.26Q31.04 3.37 31.04 3.53L31.04 3.53L31.04 12.71L31.04 12.71Q31.04 12.87 30.93 12.98L30.93 12.98L30.93 12.98Q30.81 13.09 30.66 13.09L30.66 13.09L28.15 13.09ZM36.06 13.23L36.06 13.23Q34.16 13.23 33.11 12.30L33.11 12.30L33.11 12.30Q32.06 11.37 32.06 9.46L32.06 9.46L32.06 9.37L32.06 9.37Q32.09 7.59 33.16 6.63L33.16 6.63L33.16 6.63Q34.23 5.67 36.05 5.67L36.05 5.67L36.05 5.67Q37.37 5.67 38.27 6.18L38.27 6.18L38.27 6.18Q39.17 6.69 39.61 7.55L39.61 7.55L39.61 7.55Q40.04 8.41 40.04 9.48L40.04 9.48L40.04 9.90L40.04 9.90Q40.04 10.05 39.93 10.16L39.93 10.16L39.93 10.16Q39.82 10.28 39.66 10.28L39.66 10.28L35.49 10.28L35.49 10.35L35.49 10.35Q35.49 10.78 35.62 10.99L35.62 10.99L35.62 10.99Q35.74 11.20 36.04 11.20L36.04 11.20L36.04 11.20Q36.15 11.20 36.22 11.15L36.22 11.15L36.22 11.15Q36.29 11.10 36.44 10.95L36.44 10.95L36.44 10.95Q36.57 10.82 36.65 10.79L36.65 10.79L36.65 10.79Q36.74 10.75 36.90 10.75L36.90 10.75L39.55 10.75L39.55 10.75Q39.68 10.75 39.77 10.83L39.77 10.83L39.77 10.83Q39.86 10.91 39.86 11.03L39.86 11.03L39.86 11.03Q39.86 11.42 39.42 11.95L39.42 11.95L39.42 11.95Q38.99 12.47 38.13 12.85L38.13 12.85L38.13 12.85Q37.27 13.23 36.06 13.23L36.06 13.23ZM35.49 8.53L36.61 8.53L36.61 8.51L36.61 8.51Q36.61 7.63 36.05 7.63L36.05 7.63L36.05 7.63Q35.49 7.63 35.49 8.51L35.49 8.51L35.49 8.53Z"></path></g><!----><g data-v-423bf9ae="" id="00bdf583-3b80-45c6-b843-bb7495f40c9a" transform="matrix(1.1111112157667387,0,0,1.1111112157667387,62.84444105543371,-10.055556549784015)" stroke="none" fill="black"><path d="M58.2 58.1c2.1-2.1 3.8-4.8 5-7.8.7-1.8-.2-3.8-2.1-4.5-.9-.3-1.8-.3-2.7.1-.8.4-1.5 1.1-1.8 2-.7 2-1.9 3.8-3.4 5.3-2.6 2.6-6.2 4.1-10 4.1-3.7 0-7.4-1.5-10-4.1L20.6 40.7c-2.6-2.6-4.1-6.2-4.1-10 0-3.7 1.5-7.4 4.1-10 5.5-5.5 14.5-5.5 20 0l11.7 11.7c.7.7 1.7 1.1 2.6 1 .9 0 1.8-.4 2.3-1 .7-.7 1.1-1.6 1-2.6 0-.9-.4-1.8-1-2.3L45.6 15.7c-4-4-9.3-6.2-15-6.2h-.1c-5.6 0-10.9 2.2-14.9 6.2s-6.2 9.3-6.2 15c0 5.6 2.2 10.9 6.2 15l12.5 12.4c4 4 9.3 6.2 15 6.2 5.6 0 11-2.2 15.1-6.2z"></path><path d="M84.4 54.3L71.8 41.9c-4-4-9.3-6.2-15-6.2-5.6 0-10.9 2.2-15 6.2-2.1 2.1-3.8 4.8-5 7.8-.3.9-.3 1.8.1 2.7.4.8 1.1 1.5 2 1.8 1.8.7 3.8-.2 4.5-2.1.8-2 1.9-3.8 3.4-5.3 2.6-2.6 6.2-4.1 10-4.1 3.7 0 7.4 1.5 10 4.1l12.5 12.5c2.6 2.6 4.1 6.2 4.1 10 0 3.7-1.5 7.4-4.1 10-2.6 2.7-6.1 4.2-9.8 4.2h-.1c-3.7 0-7.3-1.5-9.9-4.1L47.6 67.7c-.7-.7-1.6-1.1-2.6-1-.9 0-1.8.4-2.3 1-.7.7-1.1 1.6-1 2.6 0 .9.4 1.8 1 2.3l11.7 11.7c4 4 9.3 6.2 15 6.2 5.6 0 10.9-2.2 15-6.2 4-4 6.2-9.3 6.2-15-.1-5.6-2.2-10.9-6.2-15z"></path></g><!----><g data-v-423bf9ae="" id="638a6755-734a-4583-9e3b-097ec863a94a" fill="black" transform="matrix(4.481058850125113,0,0,4.481058850125113,31.662613154097556,182.10196460386163)"><path d="M3.67 4.08L3.67 4.08Q3.12 4.06 2.36 4.06L2.36 4.06L2.36 4.06Q2.63 3.21 3.01 2.17L3.01 2.17L3.01 2.17Q3.10 1.92 2.43 2.04L2.43 2.04L2.43 2.04Q1.66 2.18 1.57 2.44L1.57 2.44L1.57 2.44Q1.24 3.32 1.00 4.08L1.00 4.08L1.00 4.08Q0.79 4.08 0.64 4.08L0.64 4.08L0.64 4.08Q0.05 4.08-0.39 4.36L-0.39 4.36L-0.39 4.36Q-0.57 4.47-0.55 4.57L-0.55 4.57L-0.55 4.57Q-0.52 4.67-0.31 4.67L-0.31 4.67L-0.31 4.67Q0 4.67 0.82 4.66L0.82 4.66L0.82 4.66Q0.50 5.76 0.31 6.75L0.31 6.75L0.31 6.75Q0.25 7.12 0.16 7.70L0.16 7.70L0.16 7.70Q0.05 8.47 0.03 8.65L0.03 8.65L0.03 8.65Q-0.15 9.73 0.14 10.40L0.14 10.40L0.14 10.40Q0.41 11.02 0.98 11.02L0.98 11.02L0.98 11.02Q2.02 11.01 2.67 10.36L2.67 10.36L2.67 10.36Q3.53 9.47 3.68 8.22L3.68 8.22L3.68 8.22Q3.68 8.16 3.46 8.15L3.46 8.15L3.46 8.15Q3.25 8.13 2.97 8.19L2.97 8.19L2.97 8.19Q2.25 8.32 2.21 8.61L2.21 8.61L2.21 8.61Q2.13 9.32 1.63 10.09L1.63 10.09L1.63 10.09Q1.47 9.79 1.42 9.34L1.42 9.34L1.42 9.34Q1.37 8.91 1.57 7.82L1.57 7.82L1.57 7.82Q1.59 7.63 1.71 6.88L1.71 6.88L1.71 6.88Q1.79 6.30 1.87 5.93L1.87 5.93L1.87 5.93Q2.00 5.32 2.19 4.66L2.19 4.66L2.19 4.66Q2.50 4.66 2.72 4.67L2.72 4.67L2.72 4.67Q3.26 4.70 3.75 4.40L3.75 4.40L3.75 4.40Q3.93 4.29 3.90 4.19L3.90 4.19L3.90 4.19Q3.88 4.09 3.67 4.08L3.67 4.08ZM12.15 7.05L12.15 7.05Q12.24 6.66 12.33 6.31L12.33 6.31L12.33 6.31Q12.52 5.80 12.79 5.24L12.79 5.24L12.79 5.24Q12.92 4.99 13.08 4.76L13.08 4.76L13.08 4.76Q13.14 4.68 13.22 4.59L13.22 4.59L13.22 4.59Q13.20 4.61 13.24 4.57L13.24 4.57L13.24 4.57Q13.27 4.59 13.31 4.61L13.31 4.61L13.31 4.61Q13.58 4.82 13.64 5.46L13.64 5.46L13.64 5.46Q13.72 6.01 13.47 6.95L13.47 6.95L13.47 6.95Q12.67 6.97 12.15 7.05L12.15 7.05ZM11.92 10.48L11.92 10.48Q11.92 10.48 11.92 10.48L11.92 10.48L11.92 10.48Q11.92 10.48 11.90 10.49L11.90 10.49L11.90 10.49Q11.92 10.49 11.92 10.48L11.92 10.48ZM13.42 4.42L13.42 4.42L13.42 4.42Q13.43 4.42 13.43 4.41L13.43 4.41L13.43 4.41Q13.43 4.42 13.42 4.42L13.42 4.42ZM15.11 5.11L15.11 5.11Q15.07 4.50 14.73 4.17L14.73 4.17L14.73 4.17Q14.36 3.80 13.38 3.98L13.38 3.98L13.38 3.98Q12.48 4.14 11.94 4.68L11.94 4.68L11.94 4.68Q11.57 5.04 11.27 5.69L11.27 5.69L11.27 5.69Q10.81 6.49 10.58 8.04L10.58 8.04L10.58 8.04Q10.45 8.93 10.45 9.63L10.45 9.63L10.45 9.63Q10.45 10.77 11.16 10.94L11.16 10.94L11.16 10.94Q11.63 11.06 12.46 10.78L12.46 10.78L12.46 10.78Q12.96 10.62 13.43 10.23L13.43 10.23L13.43 10.23Q14.23 9.57 14.38 8.68L14.38 8.68L14.38 8.68Q14.42 8.44 13.80 8.54L13.80 8.54L13.80 8.54Q13.49 8.60 13.25 8.72L13.25 8.72L13.25 8.72Q12.96 8.85 12.95 8.94L12.95 8.94L12.95 8.94Q12.85 9.50 12.43 10.04L12.43 10.04L12.43 10.04Q12.33 10.15 12.18 10.28L12.18 10.28L12.18 10.28Q12.05 10.17 11.97 9.85L11.97 9.85L11.97 9.85Q11.88 9.51 11.92 8.76L11.92 8.76L11.92 8.76Q11.96 8.08 12.07 7.53L12.07 7.53L12.07 7.53Q12.37 7.50 12.91 7.50L12.91 7.50L12.91 7.50Q13.60 7.51 13.75 7.50L13.75 7.50L13.75 7.50Q13.98 7.49 14.31 7.38L14.31 7.38L14.31 7.38Q14.73 7.22 14.78 7.08L14.78 7.08L14.78 7.08Q15.18 5.92 15.11 5.11L15.11 5.11ZM24.75 4.18L24.75 4.18Q24.74 4.18 24.74 4.18L24.74 4.18L24.74 4.18L24.74 4.18Q24.75 4.18 24.75 4.18L24.75 4.18ZM26.38 4.01L26.38 4.01Q25.90 3.53 24.90 3.69L24.90 3.69L24.90 3.69Q23.84 3.87 23.08 4.55L23.08 4.55L23.08 4.55Q22.10 5.42 21.79 7.32L21.79 7.32L21.79 7.32Q21.47 9.30 22.02 10.34L22.02 10.34L22.02 10.34Q22.50 11.27 24.01 10.77L24.01 10.77L24.01 10.77Q25.05 10.44 25.68 9.38L25.68 9.38L25.68 9.38Q25.77 9.24 25.46 9.22L25.46 9.22L25.46 9.22Q25.27 9.21 25.10 9.25L25.10 9.25L25.10 9.25Q24.41 9.37 24.25 9.64L24.25 9.64L24.25 9.64Q24.06 9.96 23.84 10.19L23.84 10.19L23.84 10.19Q23.81 10.22 23.75 10.27L23.75 10.27L23.75 10.27Q23.56 10.15 23.42 9.85L23.42 9.85L23.42 9.85Q23.17 9.34 23.15 8.37L23.15 8.37L23.15 8.37Q23.13 7.59 23.28 6.80L23.28 6.80L23.28 6.80Q23.43 5.98 23.77 5.29L23.77 5.29L23.77 5.29Q24.12 4.58 24.60 4.27L24.60 4.27L24.60 4.27Q24.60 4.27 24.61 4.26L24.61 4.26L24.62 4.26L24.62 4.26Q24.65 4.27 24.70 4.29L24.70 4.29L24.70 4.29Q24.83 4.35 24.97 4.48L24.97 4.48L24.97 4.48Q25.39 4.85 25.39 5.58L25.39 5.58L25.39 5.58Q25.39 6.13 25.03 6.54L25.03 6.54L25.03 6.54Q24.89 6.70 25.06 6.75L25.06 6.75L25.06 6.75Q25.18 6.79 25.37 6.77L25.37 6.77L25.37 6.77Q26.10 6.71 26.35 6.43L26.35 6.43L26.35 6.43Q26.82 5.90 26.84 5.22L26.84 5.22L26.84 5.22Q26.87 4.51 26.38 4.01L26.38 4.01ZM38.76 4.41L38.76 4.41Q38.59 3.82 37.73 3.94L37.73 3.94L37.73 3.94Q37.05 4.04 36.52 4.40L36.52 4.40L36.52 4.40Q36.13 4.66 35.79 5.13L35.79 5.13L35.79 5.13Q36.20 3.24 36.89 0.53L36.89 0.53L36.89 0.53Q36.96 0.28 36.31 0.40L36.31 0.40L36.31 0.40Q36.00 0.45 35.75 0.57L35.75 0.57L35.75 0.57Q35.48 0.70 35.46 0.79L35.46 0.79L35.46 0.79Q33.89 6.96 33.43 10.85L33.43 10.85L33.43 10.85Q33.41 11.03 34.10 10.88L34.10 10.88L34.10 10.88Q34.79 10.73 34.88 10.53L34.88 10.53L34.88 10.53Q34.95 10.37 35.47 8.85L35.47 8.85L35.47 8.85Q35.99 7.33 36.43 6.36L36.43 6.36L36.43 6.36Q36.91 5.26 37.31 4.78L37.31 4.78L37.31 4.78Q37.37 4.95 37.39 5.37L37.39 5.37L37.39 5.37Q37.41 5.97 37.17 7.46L37.17 7.46L37.17 7.46Q37.11 7.90 36.73 9.10L36.73 9.10L36.73 9.10Q36.41 10.12 36.40 10.75L36.40 10.75L36.40 10.75Q36.40 10.83 36.63 10.84L36.63 10.84L36.63 10.84Q36.84 10.85 37.13 10.79L37.13 10.79L37.13 10.79Q37.85 10.64 37.86 10.36L37.86 10.36L37.86 10.36Q37.86 9.87 38.37 8.25L38.37 8.25L38.37 8.25Q38.53 7.76 38.66 6.86L38.66 6.86L38.66 6.86Q38.78 6.12 38.82 5.61L38.82 5.61L38.82 5.61Q38.88 4.83 38.76 4.41L38.76 4.41Z"></path></g></svg>