<svg data-v-fde0c5aa="" xmlns="http://www.w3.org/2000/svg" viewBox="0 0 300 300" class="font"><!----><defs data-v-fde0c5aa=""><!----></defs><rect data-v-fde0c5aa="" fill="#161C60" x="0" y="0" width="300px" height="300px" class="logo-background-square"></rect><defs data-v-fde0c5aa=""><!----></defs><g data-v-fde0c5aa="" id="1f32b57d-104c-403c-879f-5fc7b08f3c7b" fill="#D6B425" transform="matrix(5.563985708295876,0,0,5.563985708295876,37.21800714585206,104.43095673068296)"><path d="M5.21 13.23L5.21 13.23Q3.09 13.23 1.85 12.30L1.85 12.30L1.85 12.30Q0.60 11.37 0.52 9.44L0.52 9.44L0.52 9.44Q0.50 9.06 0.50 8.20L0.50 8.20L0.50 8.20Q0.50 7.34 0.52 6.94L0.52 6.94L0.52 6.94Q0.60 5.07 1.88 4.11L1.88 4.11L1.88 4.11Q3.15 3.15 5.21 3.15L5.21 3.15L5.21 3.15Q6.47 3.15 7.53 3.53L7.53 3.53L7.53 3.53Q8.58 3.91 9.25 4.71L9.25 4.71L9.25 4.71Q9.91 5.52 9.93 6.73L9.93 6.73L9.93 6.73Q9.93 6.86 9.84 6.95L9.84 6.95L9.84 6.95Q9.74 7.04 9.62 7.04L9.62 7.04L6.76 7.04L6.76 7.04Q6.54 7.04 6.43 6.96L6.43 6.96L6.43 6.96Q6.33 6.87 6.24 6.64L6.24 6.64L6.24 6.64Q6.09 6.22 5.84 6.05L5.84 6.05L5.84 6.05Q5.59 5.88 5.19 5.88L5.19 5.88L5.19 5.88Q4.70 5.88 4.44 6.14L4.44 6.14L4.44 6.14Q4.17 6.40 4.16 7.01L4.16 7.01L4.16 7.01Q4.14 7.39 4.14 8.18L4.14 8.18L4.14 8.18Q4.14 8.96 4.16 9.37L4.16 9.37L4.16 9.37Q4.17 9.98 4.44 10.24L4.44 10.24L4.44 10.24Q4.70 10.50 5.19 10.50L5.19 10.50L5.19 10.50Q5.99 10.50 6.24 9.74L6.24 9.74L6.24 9.74Q6.31 9.51 6.42 9.42L6.42 9.42L6.42 9.42Q6.52 9.34 6.76 9.34L6.76 9.34L9.62 9.34L9.62 9.34Q9.74 9.34 9.84 9.43L9.84 9.43L9.84 9.43Q9.93 9.52 9.93 9.65L9.93 9.65L9.93 9.65Q9.91 10.86 9.25 11.67L9.25 11.67L9.25 11.67Q8.58 12.47 7.53 12.85L7.53 12.85L7.53 12.85Q6.47 13.23 5.21 13.23L5.21 13.23ZM13.54 13.23L13.54 13.23Q12.80 13.23 12.18 12.89L12.18 12.89L12.18 12.89Q11.56 12.54 11.19 11.83L11.19 11.83L11.19 11.83Q10.82 11.12 10.82 10.05L10.82 10.05L10.82 6.19L10.82 6.19Q10.82 6.03 10.93 5.92L10.93 5.92L10.93 5.92Q11.05 5.81 11.20 5.81L11.20 5.81L13.87 5.81L13.87 5.81Q14.03 5.81 14.14 5.92L14.14 5.92L14.14 5.92Q14.25 6.03 14.25 6.19L14.25 6.19L14.25 9.95L14.25 9.95Q14.25 10.33 14.43 10.53L14.43 10.53L14.43 10.53Q14.62 10.72 14.95 10.72L14.95 10.72L14.95 10.72Q15.29 10.72 15.47 10.53L15.47 10.53L15.47 10.53Q15.65 10.33 15.65 9.95L15.65 9.95L15.65 6.19L15.65 6.19Q15.65 6.03 15.76 5.92L15.76 5.92L15.76 5.92Q15.88 5.81 16.03 5.81L16.03 5.81L18.69 5.81L18.69 5.81Q18.84 5.81 18.96 5.92L18.96 5.92L18.96 5.92Q19.07 6.03 19.07 6.19L19.07 6.19L19.07 12.71L19.07 12.71Q19.07 12.87 18.96 12.98L18.96 12.98L18.96 12.98Q18.84 13.09 18.69 13.09L18.69 13.09L16.24 13.09L16.24 13.09Q16.09 13.09 15.97 12.98L15.97 12.98L15.97 12.98Q15.86 12.87 15.86 12.71L15.86 12.71L15.86 12.25L15.86 12.25Q15.53 12.74 14.92 12.98L14.92 12.98L14.92 12.98Q14.32 13.23 13.54 13.23L13.54 13.23ZM24.84 13.09L24.84 13.09Q23.18 13.09 22.26 12.40L22.26 12.40L22.26 12.40Q21.34 11.70 21.34 10.08L21.34 10.08L21.34 8.26L20.23 8.26L20.23 8.26Q20.08 8.26 19.96 8.15L19.96 8.15L19.96 8.15Q19.85 8.04 19.85 7.88L19.85 7.88L19.85 6.19L19.85 6.19Q19.85 6.03 19.96 5.92L19.96 5.92L19.96 5.92Q20.08 5.81 20.23 5.81L20.23 5.81L21.34 5.81L21.34 3.53L21.34 3.53Q21.34 3.37 21.45 3.26L21.45 3.26L21.45 3.26Q21.56 3.15 21.71 3.15L21.71 3.15L24.16 3.15L24.16 3.15Q24.32 3.15 24.43 3.26L24.43 3.26L24.43 3.26Q24.54 3.37 24.54 3.53L24.54 3.53L24.54 5.81L26.31 5.81L26.31 5.81Q26.46 5.81 26.57 5.92L26.57 5.92L26.57 5.92Q26.68 6.03 26.68 6.19L26.68 6.19L26.68 7.88L26.68 7.88Q26.68 8.04 26.57 8.15L26.57 8.15L26.57 8.15Q26.46 8.26 26.31 8.26L26.31 8.26L24.54 8.26L24.54 9.80L24.54 9.80Q24.54 10.50 25.14 10.50L25.14 10.50L26.42 10.50L26.42 10.50Q26.57 10.50 26.68 10.61L26.68 10.61L26.68 10.61Q26.80 10.72 26.80 10.88L26.80 10.88L26.80 12.71L26.80 12.71Q26.80 12.87 26.68 12.98L26.68 12.98L26.68 12.98Q26.57 13.09 26.42 13.09L26.42 13.09L24.84 13.09ZM28.15 13.09L28.15 13.09Q28 13.09 27.89 12.98L27.89 12.98L27.89 12.98Q27.78 12.87 27.78 12.71L27.78 12.71L27.78 3.53L27.78 3.53Q27.78 3.37 27.89 3.26L27.89 3.26L27.89 3.26Q28 3.15 28.15 3.15L28.15 3.15L30.66 3.15L30.66 3.15Q30.81 3.15 30.93 3.26L30.93 3.26L30.93 3.26Q31.04 3.37 31.04 3.53L31.04 3.53L31.04 12.71L31.04 12.71Q31.04 12.87 30.93 12.98L30.93 12.98L30.93 12.98Q30.81 13.09 30.66 13.09L30.66 13.09L28.15 13.09ZM36.06 13.23L36.06 13.23Q34.16 13.23 33.11 12.30L33.11 12.30L33.11 12.30Q32.06 11.37 32.06 9.46L32.06 9.46L32.06 9.37L32.06 9.37Q32.09 7.59 33.16 6.63L33.16 6.63L33.16 6.63Q34.23 5.67 36.05 5.67L36.05 5.67L36.05 5.67Q37.37 5.67 38.27 6.18L38.27 6.18L38.27 6.18Q39.17 6.69 39.61 7.55L39.61 7.55L39.61 7.55Q40.04 8.41 40.04 9.48L40.04 9.48L40.04 9.90L40.04 9.90Q40.04 10.05 39.93 10.16L39.93 10.16L39.93 10.16Q39.82 10.28 39.66 10.28L39.66 10.28L35.49 10.28L35.49 10.35L35.49 10.35Q35.49 10.78 35.62 10.99L35.62 10.99L35.62 10.99Q35.74 11.20 36.04 11.20L36.04 11.20L36.04 11.20Q36.15 11.20 36.22 11.15L36.22 11.15L36.22 11.15Q36.29 11.10 36.44 10.95L36.44 10.95L36.44 10.95Q36.57 10.82 36.65 10.79L36.65 10.79L36.65 10.79Q36.74 10.75 36.90 10.75L36.90 10.75L39.55 10.75L39.55 10.75Q39.68 10.75 39.77 10.83L39.77 10.83L39.77 10.83Q39.86 10.91 39.86 11.03L39.86 11.03L39.86 11.03Q39.86 11.42 39.42 11.95L39.42 11.95L39.42 11.95Q38.99 12.47 38.13 12.85L38.13 12.85L38.13 12.85Q37.27 13.23 36.06 13.23L36.06 13.23ZM35.49 8.53L36.61 8.53L36.61 8.51L36.61 8.51Q36.61 7.63 36.05 7.63L36.05 7.63L36.05 7.63Q35.49 7.63 35.49 8.51L35.49 8.51L35.49 8.53Z"></path></g><!----><!----></svg>