<svg data-v-fde0c5aa="" xmlns="http://www.w3.org/2000/svg" viewBox="0 0 300 300" class="iconAboveSlogan"><!----><defs data-v-fde0c5aa=""><!----></defs><rect data-v-fde0c5aa="" fill="#111F51" x="0" y="0" width="300px" height="300px" class="logo-background-square"></rect><defs data-v-fde0c5aa=""><!----></defs><g data-v-fde0c5aa="" id="63afb3a8-50ba-452c-8ffe-9469c0a7f572" fill="#DABB19" transform="matrix(5.1504846215362035,0,0,5.1504846215362035,63.78088308846582,126.59122046915999)"><path d="M6.30 10.47L6.00 12.19L6.00 12.19Q5.77 12.03 5.56 11.91L5.56 11.91L5.56 11.91Q5.35 11.79 5.14 11.71L5.14 11.71L5.14 11.71Q4.94 11.63 4.71 11.59L4.71 11.59L4.71 11.59Q4.48 11.55 4.22 11.55L4.22 11.55L4.22 11.55Q3.86 11.55 3.55 11.70L3.55 11.70L3.55 11.70Q3.25 11.84 3.02 12.11L3.02 12.11L3.02 12.11Q2.79 12.39 2.66 12.78L2.66 12.78L2.66 12.78Q2.53 13.17 2.53 13.67L2.53 13.67L2.53 13.67Q2.53 14.12 2.65 14.50L2.65 14.50L2.65 14.50Q2.77 14.87 2.99 15.13L2.99 15.13L2.99 15.13Q3.21 15.39 3.52 15.54L3.52 15.54L3.52 15.54Q3.83 15.69 4.22 15.69L4.22 15.69L4.22 15.69Q4.53 15.69 4.79 15.64L4.79 15.64L4.79 15.64Q5.04 15.59 5.28 15.49L5.28 15.49L5.28 15.49Q5.51 15.39 5.73 15.26L5.73 15.26L5.73 15.26Q5.94 15.12 6.17 14.94L6.17 14.94L6.37 16.61L6.37 16.61Q6.11 16.77 5.84 16.89L5.84 16.89L5.84 16.89Q5.58 17.01 5.28 17.10L5.28 17.10L5.28 17.10Q4.99 17.18 4.66 17.22L4.66 17.22L4.66 17.22Q4.33 17.26 3.95 17.26L3.95 17.26L3.95 17.26Q3.26 17.26 2.65 17.03L2.65 17.03L2.65 17.03Q2.04 16.80 1.59 16.34L1.59 16.34L1.59 16.34Q1.14 15.89 0.88 15.24L0.88 15.24L0.88 15.24Q0.62 14.58 0.62 13.74L0.62 13.74L0.62 13.74Q0.62 12.94 0.87 12.25L0.87 12.25L0.87 12.25Q1.12 11.57 1.59 11.06L1.59 11.06L1.59 11.06Q2.05 10.55 2.71 10.27L2.71 10.27L2.71 10.27Q3.37 9.98 4.18 9.98L4.18 9.98L4.18 9.98Q4.87 9.98 5.40 10.12L5.40 10.12L5.40 10.12Q5.93 10.27 6.30 10.47L6.30 10.47ZM14.92 17.09L13.10 17.09L13.10 17.09Q13.06 16.98 13.00 16.83L13.00 16.83L13.00 16.83Q12.95 16.69 12.90 16.52L12.90 16.52L12.90 16.52Q12.84 16.36 12.80 16.18L12.80 16.18L12.80 16.18Q12.76 16.00 12.73 15.83L12.73 15.83L12.73 15.83Q12.12 16.53 11.47 16.90L11.47 16.90L11.47 16.90Q10.82 17.26 10.12 17.26L10.12 17.26L10.12 17.26Q7.98 17.26 7.98 14.32L7.98 14.32L7.98 12.30L7.98 12.30Q7.98 11.98 7.97 11.71L7.97 11.71L7.97 11.71Q7.97 11.44 7.96 11.19L7.96 11.19L7.96 11.19Q7.94 10.94 7.92 10.68L7.92 10.68L7.92 10.68Q7.89 10.42 7.84 10.12L7.84 10.12L9.89 10.12L9.89 13.91L9.89 13.91Q9.89 14.38 9.94 14.71L9.94 14.71L9.94 14.71Q9.98 15.05 10.09 15.26L10.09 15.26L10.09 15.26Q10.20 15.48 10.38 15.58L10.38 15.58L10.38 15.58Q10.55 15.68 10.81 15.68L10.81 15.68L10.81 15.68Q11.05 15.68 11.31 15.54L11.31 15.54L11.31 15.54Q11.57 15.41 11.82 15.19L11.82 15.19L11.82 15.19Q12.06 14.98 12.26 14.72L12.26 14.72L12.26 14.72Q12.46 14.47 12.56 14.23L12.56 14.23L12.56 12.30L12.56 12.30Q12.56 11.97 12.55 11.70L12.55 11.70L12.55 11.70Q12.55 11.43 12.54 11.18L12.54 11.18L12.54 11.18Q12.52 10.94 12.50 10.68L12.50 10.68L12.50 10.68Q12.47 10.43 12.42 10.12L12.42 10.12L14.47 10.12L14.47 14.01L14.47 14.01Q14.47 15.01 14.58 15.76L14.58 15.76L14.58 15.76Q14.70 16.51 14.92 17.09L14.92 17.09ZM21 11.59L18.92 11.59L18.92 13.93L18.92 13.93Q18.92 14.51 18.96 14.86L18.96 14.86L18.96 14.86Q19.01 15.20 19.12 15.39L19.12 15.39L19.12 15.39Q19.22 15.57 19.39 15.63L19.39 15.63L19.39 15.63Q19.55 15.68 19.78 15.68L19.78 15.68L19.78 15.68Q20.04 15.68 20.37 15.55L20.37 15.55L20.37 15.55Q20.69 15.42 21.10 15.17L21.10 15.17L21.10 16.70L21.10 16.70Q20.61 17.01 20.16 17.13L20.16 17.13L20.16 17.13Q19.71 17.26 19.35 17.26L19.35 17.26L19.35 17.26Q18.86 17.26 18.43 17.17L18.43 17.17L18.43 17.17Q18.01 17.08 17.69 16.84L17.69 16.84L17.69 16.84Q17.37 16.61 17.19 16.23L17.19 16.23L17.19 16.23Q17.00 15.84 17.00 15.24L17.00 15.24L17.00 11.59L15.70 11.59L15.70 10.22L17.00 10.22L17.00 8.07L18.92 8.07L18.92 10.22L21 10.22L21 11.59ZM24.69 6.15L24.69 13.84L24.69 13.84Q24.69 14.17 24.70 14.62L24.70 14.62L24.70 14.62Q24.71 15.06 24.73 15.52L24.73 15.52L24.73 15.52Q24.75 15.98 24.77 16.39L24.77 16.39L24.77 16.39Q24.79 16.81 24.83 17.09L24.83 17.09L22.78 17.09L22.78 9.37L22.78 9.37Q22.78 8.37 22.74 7.56L22.74 7.56L22.74 7.56Q22.71 6.75 22.64 6.15L22.64 6.15L24.69 6.15ZM32.83 14.01L28.41 14.01L28.41 14.01Q28.48 14.90 28.91 15.30L28.91 15.30L28.91 15.30Q29.35 15.69 30.12 15.69L30.12 15.69L30.12 15.69Q30.80 15.69 31.44 15.53L31.44 15.53L31.44 15.53Q32.07 15.38 32.72 15.00L32.72 15.00L32.86 16.58L32.86 16.58Q32.49 16.76 32.14 16.89L32.14 16.89L32.14 16.89Q31.79 17.02 31.44 17.10L31.44 17.10L31.44 17.10Q31.08 17.19 30.71 17.22L30.71 17.22L30.71 17.22Q30.34 17.26 29.95 17.26L29.95 17.26L29.95 17.26Q29.27 17.26 28.65 17.03L28.65 17.03L28.65 17.03Q28.03 16.80 27.56 16.35L27.56 16.35L27.56 16.35Q27.09 15.91 26.81 15.24L26.81 15.24L26.81 15.24Q26.54 14.58 26.54 13.71L26.54 13.71L26.54 13.71Q26.54 12.86 26.77 12.17L26.77 12.17L26.77 12.17Q27.01 11.48 27.45 11.00L27.45 11.00L27.45 11.00Q27.90 10.51 28.53 10.24L28.53 10.24L28.53 10.24Q29.16 9.98 29.95 9.98L29.95 9.98L29.95 9.98Q30.52 9.98 30.96 10.12L30.96 10.12L30.96 10.12Q31.39 10.26 31.71 10.50L31.71 10.50L31.71 10.50Q32.03 10.75 32.24 11.08L32.24 11.08L32.24 11.08Q32.46 11.41 32.58 11.80L32.58 11.80L32.58 11.80Q32.71 12.18 32.76 12.61L32.76 12.61L32.76 12.61Q32.82 13.03 32.82 13.45L32.82 13.45L32.82 13.58L32.82 13.58Q32.82 13.65 32.82 13.73L32.82 13.73L32.82 13.73Q32.83 13.82 32.83 13.89L32.83 13.89L32.83 14.01ZM29.85 11.42L29.85 11.42L29.85 11.42Q29.26 11.42 28.91 11.73L28.91 11.73L28.91 11.73Q28.57 12.05 28.45 12.78L28.45 12.78L31.08 12.78L31.08 12.78Q31.08 12.06 30.77 11.74L30.77 11.74L30.77 11.74Q30.46 11.42 29.85 11.42Z"></path></g><defs data-v-fde0c5aa=""><!----></defs><g data-v-fde0c5aa="" id="987d6bf8-c297-4d25-95f8-fd31d212ab43" stroke="none" fill="#DA197E" transform="matrix(1.2378606274928794,0,0,1.2378606274928794,88.10697216690369,28.240324038817647)"><path d="M58.2 58.1c2.1-2.1 3.8-4.8 5-7.8.7-1.8-.2-3.8-2.1-4.5-.9-.3-1.8-.3-2.7.1-.8.4-1.5 1.1-1.8 2-.7 2-1.9 3.8-3.4 5.3-2.6 2.6-6.2 4.1-10 4.1-3.7 0-7.4-1.5-10-4.1L20.6 40.7c-2.6-2.6-4.1-6.2-4.1-10 0-3.7 1.5-7.4 4.1-10 5.5-5.5 14.5-5.5 20 0l11.7 11.7c.7.7 1.7 1.1 2.6 1 .9 0 1.8-.4 2.3-1 .7-.7 1.1-1.6 1-2.6 0-.9-.4-1.8-1-2.3L45.6 15.7c-4-4-9.3-6.2-15-6.2h-.1c-5.6 0-10.9 2.2-14.9 6.2s-6.2 9.3-6.2 15c0 5.6 2.2 10.9 6.2 15l12.5 12.4c4 4 9.3 6.2 15 6.2 5.6 0 11-2.2 15.1-6.2z"></path><path d="M84.4 54.3L71.8 41.9c-4-4-9.3-6.2-15-6.2-5.6 0-10.9 2.2-15 6.2-2.1 2.1-3.8 4.8-5 7.8-.3.9-.3 1.8.1 2.7.4.8 1.1 1.5 2 1.8 1.8.7 3.8-.2 4.5-2.1.8-2 1.9-3.8 3.4-5.3 2.6-2.6 6.2-4.1 10-4.1 3.7 0 7.4 1.5 10 4.1l12.5 12.5c2.6 2.6 4.1 6.2 4.1 10 0 3.7-1.5 7.4-4.1 10-2.6 2.7-6.1 4.2-9.8 4.2h-.1c-3.7 0-7.3-1.5-9.9-4.1L47.6 67.7c-.7-.7-1.6-1.1-2.6-1-.9 0-1.8.4-2.3 1-.7.7-1.1 1.6-1 2.6 0 .9.4 1.8 1 2.3l11.7 11.7c4 4 9.3 6.2 15 6.2 5.6 0 10.9-2.2 15-6.2 4-4 6.2-9.3 6.2-15-.1-5.6-2.2-10.9-6.2-15z"></path></g><defs data-v-fde0c5aa=""><!----></defs><g data-v-fde0c5aa="" id="dd7ffb00-b531-4fc1-9c5c-220fc75b220b" fill="#19CEDA" transform="matrix(2.8080885888892135,0,0,2.8080885888892135,82.81648265322715,215.4917934559042)"><path d="M2.98 9.81L2.18 9.81L2.18 9.81Q2.11 9.73 2.06 9.46L2.06 9.46L2.06 9.46Q2.00 9.18 2.00 8.99L2.00 8.99L2.00 8.99Q2.37 9.02 2.70 9.04L2.70 9.04L2.70 9.04Q3.04 9.06 3.32 9.07L3.32 9.07L3.32 9.07Q3.53 8.65 3.77 8.24L3.77 8.24L3.77 8.24Q4.02 7.83 4.25 7.48L4.25 7.48L4.25 7.48Q4.48 7.14 4.68 6.90L4.68 6.90L4.68 6.90Q4.89 6.66 5.00 6.59L5.00 6.59L5.00 6.59Q5.14 6.59 5.36 6.64L5.36 6.64L5.36 6.64Q5.57 6.69 5.80 6.77L5.80 6.77L5.80 6.77Q6.02 6.85 6.20 6.93L6.20 6.93L6.20 6.93Q6.38 7.01 6.45 7.10L6.45 7.10L6.45 7.10Q6.03 7.63 5.73 8.09L5.73 8.09L5.73 8.09Q5.43 8.54 5.08 9.13L5.08 9.13L5.08 9.13Q5.36 9.13 5.65 9.11L5.65 9.11L5.65 9.11Q5.94 9.10 6.23 9.07L6.23 9.07L6.23 9.07Q6.30 9.14 6.34 9.25L6.34 9.25L6.34 9.25Q6.38 9.35 6.38 9.46L6.38 9.46L6.38 9.46Q5.70 9.72 4.72 9.74L4.72 9.74L4.72 9.74Q4.37 10.42 4.09 11.08L4.09 11.08L4.09 11.08Q3.82 11.75 3.63 12.36L3.63 12.36L3.63 12.36Q3.44 12.98 3.34 13.52L3.34 13.52L3.34 13.52Q3.23 14.07 3.23 14.50L3.23 14.50L3.23 14.50Q3.23 15.12 3.70 15.19L3.70 15.19L3.70 15.19Q4.12 15.13 4.49 14.98L4.49 14.98L4.49 14.98Q4.87 14.83 5.17 14.59L5.17 14.59L5.17 14.59Q5.25 14.71 5.26 14.80L5.26 14.80L5.26 14.80Q5.18 14.92 4.98 15.09L4.98 15.09L4.98 15.09Q4.77 15.26 4.54 15.42L4.54 15.42L4.54 15.42Q4.30 15.58 4.07 15.69L4.07 15.69L4.07 15.69Q3.85 15.81 3.74 15.82L3.74 15.82L3.74 15.82Q3.39 15.81 3.04 15.67L3.04 15.67L3.04 15.67Q2.69 15.53 2.40 15.32L2.40 15.32L2.40 15.32Q2.11 15.11 1.93 14.85L1.93 14.85L1.93 14.85Q1.75 14.59 1.75 14.34L1.75 14.34L1.75 14.34Q1.75 14 1.84 13.49L1.84 13.49L1.84 13.49Q1.93 12.98 2.10 12.38L2.10 12.38L2.10 12.38Q2.27 11.77 2.49 11.12L2.49 11.12L2.49 11.12Q2.72 10.46 2.98 9.81L2.98 9.81ZM18.30 9.38L18.30 9.38L18.30 9.38Q18.24 10.25 17.99 10.87L17.99 10.87L17.99 10.87Q17.74 11.49 17.27 11.96L17.27 11.96L17.27 11.96Q16.80 12.43 16.13 12.81L16.13 12.81L16.13 12.81Q15.46 13.19 14.56 13.54L14.56 13.54L14.56 13.54Q14.56 13.62 14.55 13.71L14.55 13.71L14.55 13.71Q14.55 13.80 14.55 13.90L14.55 13.90L14.55 13.90Q14.55 14.08 14.57 14.28L14.57 14.28L14.57 14.28Q14.60 14.48 14.67 14.64L14.67 14.64L14.67 14.64Q14.74 14.81 14.87 14.92L14.87 14.92L14.87 14.92Q14.99 15.02 15.19 15.02L15.19 15.02L15.19 15.02Q15.57 15.02 15.93 14.85L15.93 14.85L15.93 14.85Q16.30 14.69 16.63 14.44L16.63 14.44L16.63 14.44Q16.95 14.20 17.24 13.91L17.24 13.91L17.24 13.91Q17.53 13.62 17.75 13.38L17.75 13.38L17.75 13.38Q17.89 13.51 17.99 13.62L17.99 13.62L17.99 13.62Q17.36 14.46 16.61 15.02L16.61 15.02L16.61 15.02Q15.86 15.57 15.19 15.72L15.19 15.72L15.19 15.72Q14.22 15.61 13.69 15.02L13.69 15.02L13.69 15.02Q13.15 14.42 13.15 13.58L13.15 13.58L13.15 13.58Q13.15 13.01 13.31 12.41L13.31 12.41L13.31 12.41Q13.47 11.82 13.76 11.26L13.76 11.26L13.76 11.26Q14.04 10.71 14.43 10.22L14.43 10.22L14.43 10.22Q14.81 9.73 15.25 9.37L15.25 9.37L15.25 9.37Q15.69 9.00 16.16 8.79L16.16 8.79L16.16 8.79Q16.63 8.58 17.09 8.58L17.09 8.58L17.09 8.58Q17.74 8.67 18.30 9.38ZM17.33 9.84L17.33 9.84L17.33 9.84Q16.95 9.90 16.55 10.15L16.55 10.15L16.55 10.15Q16.14 10.40 15.79 10.82L15.79 10.82L15.79 10.82Q15.43 11.24 15.13 11.80L15.13 11.80L15.13 11.80Q14.84 12.36 14.67 13.01L14.67 13.01L14.67 13.01Q15.79 12.45 16.53 11.63L16.53 11.63L16.53 11.63Q17.28 10.81 17.33 9.84ZM26.03 12.71L26.03 12.71L26.03 12.71Q26.03 11.91 26.36 11.16L26.36 11.16L26.36 11.16Q26.68 10.42 27.22 9.84L27.22 9.84L27.22 9.84Q27.76 9.25 28.45 8.90L28.45 8.90L28.45 8.90Q29.15 8.54 29.89 8.54L29.89 8.54L29.89 8.54Q30.62 8.54 31.01 8.90L31.01 8.90L31.01 8.90Q31.40 9.27 31.40 9.94L31.40 9.94L31.40 9.94Q31.40 10.26 31.31 10.56L31.31 10.56L31.31 10.56Q31.22 10.86 31.07 11.10L31.07 11.10L31.07 11.10Q30.93 11.34 30.73 11.49L30.73 11.49L30.73 11.49Q30.53 11.63 30.34 11.63L30.34 11.63L30.34 11.63Q30.17 11.63 30.00 11.53L30.00 11.53L30.00 11.53Q29.82 11.42 29.71 11.26L29.71 11.26L29.71 11.26Q30.65 10.40 30.65 9.70L30.65 9.70L30.65 9.70Q30.65 9.30 30.32 9.30L30.32 9.30L30.32 9.30Q30.04 9.30 29.62 9.56L29.62 9.56L29.62 9.56Q29.20 9.83 28.81 10.26L28.81 10.26L28.81 10.26Q28.21 10.93 27.89 11.75L27.89 11.75L27.89 11.75Q27.58 12.57 27.58 13.47L27.58 13.47L27.58 13.47Q27.58 14.60 28.08 14.83L28.08 14.83L28.08 14.83Q28.29 14.80 28.57 14.70L28.57 14.70L28.57 14.70Q28.85 14.60 29.18 14.44L29.18 14.44L29.18 14.44Q29.50 14.28 29.84 14.07L29.84 14.07L29.84 14.07Q30.18 13.86 30.51 13.62L30.51 13.62L30.51 13.62Q30.56 13.66 30.60 13.75L30.60 13.75L30.60 13.75Q30.65 13.83 30.65 13.90L30.65 13.90L30.65 13.90Q30.41 14.20 30.10 14.48L30.10 14.48L30.10 14.48Q29.79 14.76 29.46 14.99L29.46 14.99L29.46 14.99Q29.12 15.22 28.80 15.38L28.80 15.38L28.80 15.38Q28.49 15.54 28.25 15.58L28.25 15.58L28.25 15.58Q27.79 15.54 27.38 15.29L27.38 15.29L27.38 15.29Q26.98 15.05 26.68 14.66L26.68 14.66L26.68 14.66Q26.38 14.27 26.20 13.76L26.20 13.76L26.20 13.76Q26.03 13.26 26.03 12.71ZM38.81 14.94L38.81 14.94L38.81 14.94Q38.81 14.45 38.91 13.78L38.91 13.78L38.91 13.78Q39.00 13.12 39.19 12.36L39.19 12.36L39.19 12.36Q39.38 11.61 39.64 10.78L39.64 10.78L39.64 10.78Q39.90 9.95 40.22 9.13L40.22 9.13L40.22 9.13Q40.50 8.39 40.87 7.63L40.87 7.63L40.87 7.63Q41.24 6.87 41.68 6.15L41.68 6.15L41.68 6.15Q42.11 5.42 42.58 4.76L42.58 4.76L42.58 4.76Q43.05 4.10 43.53 3.56L43.53 3.56L43.53 3.56Q43.75 3.56 44.01 3.61L44.01 3.61L44.01 3.61Q44.27 3.67 44.51 3.76L44.51 3.76L44.51 3.76Q44.76 3.85 44.96 3.98L44.96 3.98L44.96 3.98Q45.16 4.10 45.29 4.23L45.29 4.23L45.29 4.23Q44.24 5.31 43.40 6.40L43.40 6.40L43.40 6.40Q42.56 7.50 42.07 8.47L42.07 8.47L42.07 8.47Q41.80 9.00 41.59 9.46L41.59 9.46L41.59 9.46Q41.37 9.93 41.19 10.38L41.19 10.38L41.19 10.38Q41.01 10.84 40.86 11.29L40.86 11.29L40.86 11.29Q40.71 11.75 40.59 12.25L40.59 12.25L40.59 12.25Q43.27 8.82 44.58 8.82L44.58 8.82L44.58 8.82Q44.94 8.82 45.36 9.06L45.36 9.06L45.36 9.06Q45.78 9.30 46.10 9.70L46.10 9.70L46.10 9.70Q45.67 10.18 45.21 10.85L45.21 10.85L45.21 10.85Q44.74 11.52 44.36 12.20L44.36 12.20L44.36 12.20Q43.97 12.88 43.73 13.46L43.73 13.46L43.73 13.46Q43.48 14.04 43.48 14.32L43.48 14.32L43.48 14.32Q43.48 14.46 43.53 14.51L43.53 14.51L43.53 14.51Q43.57 14.56 43.71 14.56L43.71 14.56L43.71 14.56Q43.92 14.56 44.04 14.50L44.04 14.50L44.04 14.50Q44.17 14.45 44.20 14.45L44.20 14.45L44.20 14.45Q44.27 14.56 44.28 14.60L44.28 14.60L44.28 14.60Q44.30 14.64 44.30 14.67L44.30 14.67L44.30 14.67Q44.30 14.73 44.13 14.83L44.13 14.83L44.13 14.83Q43.96 14.94 43.73 15.04L43.73 15.04L43.73 15.04Q43.50 15.15 43.27 15.23L43.27 15.23L43.27 15.23Q43.05 15.32 42.94 15.32L42.94 15.32L42.94 15.32Q42.80 15.32 42.66 15.24L42.66 15.24L42.66 15.24Q42.52 15.16 42.41 15.04L42.41 15.04L42.41 15.04Q42.31 14.91 42.24 14.76L42.24 14.76L42.24 14.76Q42.18 14.60 42.18 14.43L42.18 14.43L42.18 14.43Q42.18 14.22 42.30 13.81L42.30 13.81L42.30 13.81Q42.42 13.40 42.63 12.85L42.63 12.85L42.63 12.85Q42.84 12.29 43.13 11.63L43.13 11.63L43.13 11.63Q43.43 10.98 43.76 10.29L43.76 10.29L43.76 10.29Q43.76 10.23 43.71 10.23L43.71 10.23L43.71 10.23Q43.67 10.23 43.49 10.35L43.49 10.35L43.49 10.35Q43.32 10.46 43.16 10.57L43.16 10.57L43.16 10.57Q42.66 10.95 42.15 11.50L42.15 11.50L42.15 11.50Q41.64 12.05 41.15 12.71L41.15 12.71L41.15 12.71Q40.67 13.37 40.24 14.11L40.24 14.11L40.24 14.11Q39.82 14.84 39.51 15.58L39.51 15.58L39.51 15.58Q39.47 15.68 39.38 15.76L39.38 15.76L39.38 15.76Q39.30 15.85 39.24 15.85L39.24 15.85L39.24 15.85Q39.20 15.85 39.12 15.75L39.12 15.75L39.12 15.75Q39.05 15.65 38.98 15.51L38.98 15.51L38.98 15.51Q38.92 15.36 38.86 15.20L38.86 15.20L38.86 15.20Q38.81 15.05 38.81 14.94Z"></path></g></svg>