<svg data-v-423bf9ae="" xmlns="http://www.w3.org/2000/svg" viewBox="0 0 174.11341084046944 60" class="font"><!----><!----><!----><g data-v-423bf9ae="" id="cc710b79-e4cc-4bb3-a78b-a16804e714fa" fill="white" transform="matrix(5.400539757315222,0,0,5.400539757315222,-3.3483354551334514,-33.213319545687064)"><path d="M6.30 10.47L6.00 12.19L6.00 12.19Q5.77 12.03 5.56 11.91L5.56 11.91L5.56 11.91Q5.35 11.79 5.14 11.71L5.14 11.71L5.14 11.71Q4.94 11.63 4.71 11.59L4.71 11.59L4.71 11.59Q4.48 11.55 4.22 11.55L4.22 11.55L4.22 11.55Q3.86 11.55 3.55 11.70L3.55 11.70L3.55 11.70Q3.25 11.84 3.02 12.11L3.02 12.11L3.02 12.11Q2.79 12.39 2.66 12.78L2.66 12.78L2.66 12.78Q2.53 13.17 2.53 13.67L2.53 13.67L2.53 13.67Q2.53 14.12 2.65 14.50L2.65 14.50L2.65 14.50Q2.77 14.87 2.99 15.13L2.99 15.13L2.99 15.13Q3.21 15.39 3.52 15.54L3.52 15.54L3.52 15.54Q3.83 15.69 4.22 15.69L4.22 15.69L4.22 15.69Q4.53 15.69 4.79 15.64L4.79 15.64L4.79 15.64Q5.04 15.59 5.28 15.49L5.28 15.49L5.28 15.49Q5.51 15.39 5.73 15.26L5.73 15.26L5.73 15.26Q5.94 15.12 6.17 14.94L6.17 14.94L6.37 16.61L6.37 16.61Q6.11 16.77 5.84 16.89L5.84 16.89L5.84 16.89Q5.58 17.01 5.28 17.10L5.28 17.10L5.28 17.10Q4.99 17.18 4.66 17.22L4.66 17.22L4.66 17.22Q4.33 17.26 3.95 17.26L3.95 17.26L3.95 17.26Q3.26 17.26 2.65 17.03L2.65 17.03L2.65 17.03Q2.04 16.80 1.59 16.34L1.59 16.34L1.59 16.34Q1.14 15.89 0.88 15.24L0.88 15.24L0.88 15.24Q0.62 14.58 0.62 13.74L0.62 13.74L0.62 13.74Q0.62 12.94 0.87 12.25L0.87 12.25L0.87 12.25Q1.12 11.57 1.59 11.06L1.59 11.06L1.59 11.06Q2.05 10.55 2.71 10.27L2.71 10.27L2.71 10.27Q3.37 9.98 4.18 9.98L4.18 9.98L4.18 9.98Q4.87 9.98 5.40 10.12L5.40 10.12L5.40 10.12Q5.93 10.27 6.30 10.47L6.30 10.47ZM14.92 17.09L13.10 17.09L13.10 17.09Q13.06 16.98 13.00 16.83L13.00 16.83L13.00 16.83Q12.95 16.69 12.90 16.52L12.90 16.52L12.90 16.52Q12.84 16.36 12.80 16.18L12.80 16.18L12.80 16.18Q12.76 16.00 12.73 15.83L12.73 15.83L12.73 15.83Q12.12 16.53 11.47 16.90L11.47 16.90L11.47 16.90Q10.82 17.26 10.12 17.26L10.12 17.26L10.12 17.26Q7.98 17.26 7.98 14.32L7.98 14.32L7.98 12.30L7.98 12.30Q7.98 11.98 7.97 11.71L7.97 11.71L7.97 11.71Q7.97 11.44 7.96 11.19L7.96 11.19L7.96 11.19Q7.94 10.94 7.92 10.68L7.92 10.68L7.92 10.68Q7.89 10.42 7.84 10.12L7.84 10.12L9.89 10.12L9.89 13.91L9.89 13.91Q9.89 14.38 9.94 14.71L9.94 14.71L9.94 14.71Q9.98 15.05 10.09 15.26L10.09 15.26L10.09 15.26Q10.20 15.48 10.38 15.58L10.38 15.58L10.38 15.58Q10.55 15.68 10.81 15.68L10.81 15.68L10.81 15.68Q11.05 15.68 11.31 15.54L11.31 15.54L11.31 15.54Q11.57 15.41 11.82 15.19L11.82 15.19L11.82 15.19Q12.06 14.98 12.26 14.72L12.26 14.72L12.26 14.72Q12.46 14.47 12.56 14.23L12.56 14.23L12.56 12.30L12.56 12.30Q12.56 11.97 12.55 11.70L12.55 11.70L12.55 11.70Q12.55 11.43 12.54 11.18L12.54 11.18L12.54 11.18Q12.52 10.94 12.50 10.68L12.50 10.68L12.50 10.68Q12.47 10.43 12.42 10.12L12.42 10.12L14.47 10.12L14.47 14.01L14.47 14.01Q14.47 15.01 14.58 15.76L14.58 15.76L14.58 15.76Q14.70 16.51 14.92 17.09L14.92 17.09ZM21 11.59L18.92 11.59L18.92 13.93L18.92 13.93Q18.92 14.51 18.96 14.86L18.96 14.86L18.96 14.86Q19.01 15.20 19.12 15.39L19.12 15.39L19.12 15.39Q19.22 15.57 19.39 15.63L19.39 15.63L19.39 15.63Q19.55 15.68 19.78 15.68L19.78 15.68L19.78 15.68Q20.04 15.68 20.37 15.55L20.37 15.55L20.37 15.55Q20.69 15.42 21.10 15.17L21.10 15.17L21.10 16.70L21.10 16.70Q20.61 17.01 20.16 17.13L20.16 17.13L20.16 17.13Q19.71 17.26 19.35 17.26L19.35 17.26L19.35 17.26Q18.86 17.26 18.43 17.17L18.43 17.17L18.43 17.17Q18.01 17.08 17.69 16.84L17.69 16.84L17.69 16.84Q17.37 16.61 17.19 16.23L17.19 16.23L17.19 16.23Q17.00 15.84 17.00 15.24L17.00 15.24L17.00 11.59L15.70 11.59L15.70 10.22L17.00 10.22L17.00 8.07L18.92 8.07L18.92 10.22L21 10.22L21 11.59ZM24.69 6.15L24.69 13.84L24.69 13.84Q24.69 14.17 24.70 14.62L24.70 14.62L24.70 14.62Q24.71 15.06 24.73 15.52L24.73 15.52L24.73 15.52Q24.75 15.98 24.77 16.39L24.77 16.39L24.77 16.39Q24.79 16.81 24.83 17.09L24.83 17.09L22.78 17.09L22.78 9.37L22.78 9.37Q22.78 8.37 22.74 7.56L22.74 7.56L22.74 7.56Q22.71 6.75 22.64 6.15L22.64 6.15L24.69 6.15ZM32.83 14.01L28.41 14.01L28.41 14.01Q28.48 14.90 28.91 15.30L28.91 15.30L28.91 15.30Q29.35 15.69 30.12 15.69L30.12 15.69L30.12 15.69Q30.80 15.69 31.44 15.53L31.44 15.53L31.44 15.53Q32.07 15.38 32.72 15.00L32.72 15.00L32.86 16.58L32.86 16.58Q32.49 16.76 32.14 16.89L32.14 16.89L32.14 16.89Q31.79 17.02 31.44 17.10L31.44 17.10L31.44 17.10Q31.08 17.19 30.71 17.22L30.71 17.22L30.71 17.22Q30.34 17.26 29.95 17.26L29.95 17.26L29.95 17.26Q29.27 17.26 28.65 17.03L28.65 17.03L28.65 17.03Q28.03 16.80 27.56 16.35L27.56 16.35L27.56 16.35Q27.09 15.91 26.81 15.24L26.81 15.24L26.81 15.24Q26.54 14.58 26.54 13.71L26.54 13.71L26.54 13.71Q26.54 12.86 26.77 12.17L26.77 12.17L26.77 12.17Q27.01 11.48 27.45 11.00L27.45 11.00L27.45 11.00Q27.90 10.51 28.53 10.24L28.53 10.24L28.53 10.24Q29.16 9.98 29.95 9.98L29.95 9.98L29.95 9.98Q30.52 9.98 30.96 10.12L30.96 10.12L30.96 10.12Q31.39 10.26 31.71 10.50L31.71 10.50L31.71 10.50Q32.03 10.75 32.24 11.08L32.24 11.08L32.24 11.08Q32.46 11.41 32.58 11.80L32.58 11.80L32.58 11.80Q32.71 12.18 32.76 12.61L32.76 12.61L32.76 12.61Q32.82 13.03 32.82 13.45L32.82 13.45L32.82 13.58L32.82 13.58Q32.82 13.65 32.82 13.73L32.82 13.73L32.82 13.73Q32.83 13.82 32.83 13.89L32.83 13.89L32.83 14.01ZM29.85 11.42L29.85 11.42L29.85 11.42Q29.26 11.42 28.91 11.73L28.91 11.73L28.91 11.73Q28.57 12.05 28.45 12.78L28.45 12.78L31.08 12.78L31.08 12.78Q31.08 12.06 30.77 11.74L30.77 11.74L30.77 11.74Q30.46 11.42 29.85 11.42Z"></path></g><!----><!----></svg>